bicep_curl
version=1
nRows=318
nColumns=3
inDegrees=yes

# SIMM Motion File Header:
name bicep_curl
datacolumns 3
datarows 318
otherdata 1
range 0.0000 0.3170
endheader
time	/jointset/r_shoulder/r_shoulder_elev/value	/jointset/r_elbow/r_elbow_flex/value
0.0000	0.0000	57.1200
0.0010	0.0000	57.2939
0.0020	0.0000	57.4675
0.0030	0.0000	57.6408
0.0040	0.0000	57.8138
0.0050	0.0000	57.9864
0.0060	0.0000	58.1588
0.0070	0.0000	58.3309
0.0080	0.0000	58.5027
0.0090	0.0000	58.6741
0.0100	0.0000	58.8453
0.0110	0.0000	59.0161
0.0120	0.0000	59.1867
0.0130	0.0000	59.3569
0.0140	0.0000	59.5269
0.0150	0.0000	59.6965
0.0160	0.0000	59.8659
0.0170	0.0000	60.0349
0.0180	0.0000	60.2036
0.0190	0.0000	60.3721
0.0200	0.0000	60.5402
0.0210	0.0000	60.7080
0.0220	0.0000	60.8755
0.0230	0.0000	61.0427
0.0240	0.0000	61.2096
0.0250	0.0000	61.3763
0.0260	0.0000	61.5426
0.0270	0.0000	61.7086
0.0280	0.0000	61.8742
0.0290	0.0000	62.0396
0.0300	0.0000	62.2047
0.0310	0.0000	62.3695
0.0320	0.0000	62.5340
0.0330	0.0000	62.6982
0.0340	0.0000	62.8620
0.0350	0.0000	63.0256
0.0360	0.0000	63.1889
0.0370	0.0000	63.3518
0.0380	0.0000	63.5145
0.0390	0.0000	63.6768
0.0400	0.0000	63.8389
0.0410	0.0000	64.0006
0.0420	0.0000	64.1621
0.0430	0.0000	64.3232
0.0440	0.0000	64.4840
0.0450	0.0000	64.6446
0.0460	0.0000	64.8048
0.0470	0.0000	64.9647
0.0480	0.0000	65.1243
0.0490	0.0000	65.2837
0.0500	0.0000	65.4427
0.0510	0.0000	65.6014
0.0520	0.0000	65.7598
0.0530	0.0000	65.9179
0.0540	0.0000	66.0757
0.0550	0.0000	66.2332
0.0560	0.0000	66.3904
0.0570	0.0000	66.5473
0.0580	0.0000	66.7038
0.0590	0.0000	66.8601
0.0600	0.0000	67.0161
0.0610	0.0000	67.1718
0.0620	0.0000	67.3271
0.0630	0.0000	67.4822
0.0640	0.0000	67.6369
0.0650	0.0000	67.7914
0.0660	0.0000	67.9456
0.0670	0.0000	68.0994
0.0680	0.0000	68.2530
0.0690	0.0000	68.4062
0.0700	0.0000	68.5591
0.0710	0.0000	68.7118
0.0720	0.0000	68.8641
0.0730	0.0000	69.0161
0.0740	0.0000	69.1678
0.0750	0.0000	69.3193
0.0760	0.0000	69.4704
0.0770	0.0000	69.6212
0.0780	0.0000	69.7717
0.0790	0.0000	69.9219
0.0800	0.0000	70.0718
0.0810	0.0000	70.2214
0.0820	0.0000	70.3707
0.0830	0.0000	70.5197
0.0840	0.0000	70.6684
0.0850	0.0000	70.8167
0.0860	0.0000	70.9648
0.0870	0.0000	71.1126
0.0880	0.0000	71.2601
0.0890	0.0000	71.4072
0.0900	0.0000	71.5541
0.0910	0.0000	71.7006
0.0920	0.0000	71.8469
0.0930	0.0000	71.9929
0.0940	0.0000	72.1385
0.0950	0.0000	72.2838
0.0960	0.0000	72.4289
0.0970	0.0000	72.5736
0.0980	0.0000	72.7181
0.0990	0.0000	72.8622
0.1000	0.0000	73.0060
0.1010	0.0000	73.1495
0.1020	0.0000	73.2928
0.1030	0.0000	73.4357
0.1040	0.0000	73.5783
0.1050	0.0000	73.7206
0.1060	0.0000	73.8626
0.1070	0.0000	74.0043
0.1080	0.0000	74.1457
0.1090	0.0000	74.2868
0.1100	0.0000	74.4276
0.1110	0.0000	74.5680
0.1120	0.0000	74.7082
0.1130	0.0000	74.8481
0.1140	0.0000	74.9877
0.1150	0.0000	75.1269
0.1160	0.0000	75.2659
0.1170	0.0000	75.4046
0.1180	0.0000	75.5429
0.1190	0.0000	75.6810
0.1200	0.0000	75.8187
0.1210	0.0000	75.9562
0.1220	0.0000	76.0933
0.1230	0.0000	76.2302
0.1240	0.0000	76.3667
0.1250	0.0000	76.5029
0.1260	0.0000	76.6389
0.1270	0.0000	76.7745
0.1280	0.0000	76.9098
0.1290	0.0000	77.0448
0.1300	0.0000	77.1795
0.1310	0.0000	77.3139
0.1320	0.0000	77.4480
0.1330	0.0000	77.5818
0.1340	0.0000	77.7153
0.1350	0.0000	77.8485
0.1360	0.0000	77.9814
0.1370	0.0000	78.1140
0.1380	0.0000	78.2463
0.1390	0.0000	78.3783
0.1400	0.0000	78.5100
0.1410	0.0000	78.6413
0.1420	0.0000	78.7724
0.1430	0.0000	78.9032
0.1440	0.0000	79.0336
0.1450	0.0000	79.1638
0.1460	0.0000	79.2936
0.1470	0.0000	79.4232
0.1480	0.0000	79.5524
0.1490	0.0000	79.6814
0.1500	0.0000	79.8100
0.1510	0.0000	79.9383
0.1520	0.0000	80.0664
0.1530	0.0000	80.1941
0.1540	0.0000	80.3215
0.1550	0.0000	80.4486
0.1560	0.0000	80.5755
0.1570	0.0000	80.7020
0.1580	0.0000	80.8282
0.1590	0.0000	80.9541
0.1600	0.0000	81.0797
0.1610	0.0000	81.2050
0.1620	0.0000	81.3300
0.1630	0.0000	81.4547
0.1640	0.0000	81.5791
0.1650	0.0000	81.7031
0.1660	0.0000	81.8269
0.1670	0.0000	81.9504
0.1680	0.0000	82.0736
0.1690	0.0000	82.1964
0.1700	0.0000	82.3190
0.1710	0.0000	82.4413
0.1720	0.0000	82.5632
0.1730	0.0000	82.6849
0.1740	0.0000	82.8062
0.1750	0.0000	82.9273
0.1760	0.0000	83.0480
0.1770	0.0000	83.1684
0.1780	0.0000	83.2886
0.1790	0.0000	83.4084
0.1800	0.0000	83.5279
0.1810	0.0000	83.6472
0.1820	0.0000	83.7661
0.1830	0.0000	83.8847
0.1840	0.0000	84.0030
0.1850	0.0000	84.1210
0.1860	0.0000	84.2387
0.1870	0.0000	84.3561
0.1880	0.0000	84.4732
0.1890	0.0000	84.5900
0.1900	0.0000	84.7065
0.1910	0.0000	84.8227
0.1920	0.0000	84.9386
0.1930	0.0000	85.0541
0.1940	0.0000	85.1694
0.1950	0.0000	85.2844
0.1960	0.0000	85.3990
0.1970	0.0000	85.5134
0.1980	0.0000	85.6275
0.1990	0.0000	85.7412
0.2000	0.0000	85.8547
0.2010	0.0000	85.9678
0.2020	0.0000	86.0807
0.2030	0.0000	86.1932
0.2040	0.0000	86.3054
0.2050	0.0000	86.4174
0.2060	0.0000	86.5290
0.2070	0.0000	86.6403
0.2080	0.0000	86.7514
0.2090	0.0000	86.8621
0.2100	0.0000	86.9725
0.2110	0.0000	87.0826
0.2120	0.0000	87.1924
0.2130	0.0000	87.3019
0.2140	0.0000	87.4111
0.2150	0.0000	87.5200
0.2160	0.0000	87.6286
0.2170	0.0000	87.7369
0.2180	0.0000	87.8449
0.2190	0.0000	87.9525
0.2200	0.0000	88.0599
0.2210	0.0000	88.1670
0.2220	0.0000	88.2738
0.2230	0.0000	88.3802
0.2240	0.0000	88.4864
0.2250	0.0000	88.5923
0.2260	0.0000	88.6978
0.2270	0.0000	88.8031
0.2280	0.0000	88.9080
0.2290	0.0000	89.0127
0.2300	0.0000	89.1170
0.2310	0.0000	89.2210
0.2320	0.0000	89.3248
0.2330	0.0000	89.4282
0.2340	0.0000	89.5313
0.2350	0.0000	89.6341
0.2360	0.0000	89.7366
0.2370	0.0000	89.8389
0.2380	0.0000	89.9408
0.2390	0.0000	90.0424
0.2400	0.0000	90.1437
0.2410	0.0000	90.2447
0.2420	0.0000	90.3454
0.2430	0.0000	90.4458
0.2440	0.0000	90.5459
0.2450	0.0000	90.6456
0.2460	0.0000	90.7451
0.2470	0.0000	90.8443
0.2480	0.0000	90.9432
0.2490	0.0000	91.0417
0.2500	0.0000	91.1400
0.2510	0.0000	91.0890
0.2520	0.0000	91.0379
0.2530	0.0000	90.9867
0.2540	0.0000	90.9353
0.2550	0.0000	90.8837
0.2560	0.0000	90.8320
0.2570	0.0000	90.7802
0.2580	0.0000	90.7282
0.2590	0.0000	90.6761
0.2600	0.0000	90.6238
0.2610	0.0000	90.5713
0.2620	0.0000	90.5187
0.2630	0.0000	90.4660
0.2640	0.0000	90.4131
0.2650	0.0000	90.3601
0.2660	0.0000	90.3069
0.2670	0.0000	90.2536
0.2680	0.0000	90.2001
0.2690	0.0000	90.1465
0.2700	0.0000	90.0927
0.2710	0.0000	90.0388
0.2720	0.0000	89.9847
0.2730	0.0000	89.9305
0.2740	0.0000	89.8761
0.2750	0.0000	89.8216
0.2760	0.0000	89.7669
0.2770	0.0000	89.7121
0.2780	0.0000	89.6571
0.2790	0.0000	89.6020
0.2800	0.0000	89.5468
0.2810	0.0000	89.4913
0.2820	0.0000	89.4358
0.2830	0.0000	89.3801
0.2840	0.0000	89.3242
0.2850	0.0000	89.2682
0.2860	0.0000	89.2121
0.2870	0.0000	89.1558
0.2880	0.0000	89.0993
0.2890	0.0000	89.0427
0.2900	0.0000	88.9860
0.2910	0.0000	88.9291
0.2920	0.0000	88.8720
0.2930	0.0000	88.8149
0.2940	0.0000	88.7575
0.2950	0.0000	88.7000
0.2960	0.0000	88.6424
0.2970	0.0000	88.5846
0.2980	0.0000	88.5267
0.2990	0.0000	88.4686
0.3000	0.0000	88.4104
0.3010	0.0000	88.3520
0.3020	0.0000	88.2934
0.3030	0.0000	88.2348
0.3040	0.0000	88.1759
0.3050	0.0000	88.1170
0.3060	0.0000	88.0579
0.3070	0.0000	87.9986
0.3080	0.0000	87.9392
0.3090	0.0000	87.8796
0.3100	0.0000	87.8199
0.3110	0.0000	87.7600
0.3120	0.0000	87.7000
0.3130	0.0000	87.6398
0.3140	0.0000	87.5795
0.3150	0.0000	87.5191
0.3160	0.0000	87.4585
0.3170	0.0000	87.3977
